<?xml version="1.0" encoding="UTF-8" standalone="no"?>
<svg
   xmlns:dc="http://purl.org/dc/elements/1.1/"
   xmlns:cc="http://creativecommons.org/ns#"
   xmlns:rdf="http://www.w3.org/1999/02/22-rdf-syntax-ns#"
   xmlns:svg="http://www.w3.org/2000/svg"
   xmlns="http://www.w3.org/2000/svg"
   version="1.1"
   id="svg2"
   viewBox="0 0 450.19715 467.35239"
   height="131.89723mm"
   width="127.05564mm">
  <defs
     id="defs4">
    <marker
       style="overflow:visible"
       id="marker6267"
       refX="0"
       refY="0"
       orient="auto">
      <path
         transform="matrix(0.4,0,0,0.4,4,0)"
         style="fill:#004455;fill-opacity:1;fill-rule:evenodd;stroke:#004455;stroke-width:1pt;stroke-opacity:1"
         d="M 0,0 5,-5 -12.5,0 5,5 0,0 Z"
         id="path6269" />
    </marker>
    <marker
       orient="auto"
       refY="0"
       refX="0"
       id="marker6137"
       style="overflow:visible">
      <path
         id="path6139"
         d="M 0,0 5,-5 -12.5,0 5,5 0,0 Z"
         style="fill:#004455;fill-opacity:1;fill-rule:evenodd;stroke:#004455;stroke-width:1pt;stroke-opacity:1"
         transform="matrix(0.4,0,0,0.4,4,0)" />
    </marker>
    <marker
       style="overflow:visible"
       id="marker6013"
       refX="0"
       refY="0"
       orient="auto">
      <path
         transform="matrix(0.4,0,0,0.4,4,0)"
         style="fill:#004455;fill-opacity:1;fill-rule:evenodd;stroke:#004455;stroke-width:1pt;stroke-opacity:1"
         d="M 0,0 5,-5 -12.5,0 5,5 0,0 Z"
         id="path6015" />
    </marker>
    <marker
       orient="auto"
       refY="0"
       refX="0"
       id="marker5895"
       style="overflow:visible">
      <path
         id="path5897"
         d="M 0,0 5,-5 -12.5,0 5,5 0,0 Z"
         style="fill:#004455;fill-opacity:1;fill-rule:evenodd;stroke:#004455;stroke-width:1pt;stroke-opacity:1"
         transform="matrix(0.4,0,0,0.4,4,0)" />
    </marker>
    <marker
       orient="auto"
       refY="0"
       refX="0"
       id="marker5820"
       style="overflow:visible">
      <path
         id="path5822"
         d="M 0,0 5,-5 -12.5,0 5,5 0,0 Z"
         style="fill:#004455;fill-opacity:1;fill-rule:evenodd;stroke:#004455;stroke-width:1pt;stroke-opacity:1"
         transform="matrix(-0.4,0,0,-0.4,-4,0)" />
    </marker>
    <marker
       orient="auto"
       refY="0"
       refX="0"
       id="marker5433"
       style="overflow:visible">
      <path
         id="path5435"
         d="M 0,0 5,-5 -12.5,0 5,5 0,0 Z"
         style="fill:#44aa00;fill-opacity:1;fill-rule:evenodd;stroke:#44aa00;stroke-width:1pt;stroke-opacity:1"
         transform="matrix(0.4,0,0,0.4,4,0)" />
    </marker>
    <marker
       style="overflow:visible"
       id="marker5162"
       refX="0"
       refY="0"
       orient="auto">
      <path
         transform="matrix(-0.4,0,0,-0.4,-4,0)"
         style="fill:#808080;fill-opacity:1;fill-rule:evenodd;stroke:#808080;stroke-width:1pt;stroke-opacity:1"
         d="M 0,0 5,-5 -12.5,0 5,5 0,0 Z"
         id="path4323" />
    </marker>
    <marker
       style="overflow:visible"
       id="marker4823"
       refX="0"
       refY="0"
       orient="auto">
      <path
         transform="matrix(0.4,0,0,0.4,4,0)"
         style="fill:#808080;fill-opacity:1;fill-rule:evenodd;stroke:#808080;stroke-width:1pt;stroke-opacity:1"
         d="M 0,0 5,-5 -12.5,0 5,5 0,0 Z"
         id="path4320" />
    </marker>
    <marker
       style="overflow:visible"
       id="Arrow1Lstart"
       refX="0"
       refY="0"
       orient="auto">
      <path
         transform="matrix(0.8,0,0,0.8,10,0)"
         style="fill:#808080;fill-opacity:1;fill-rule:evenodd;stroke:#808080;stroke-width:1pt;stroke-opacity:1"
         d="M 0,0 5,-5 -12.5,0 5,5 0,0 Z"
         id="path4314" />
    </marker>
    <marker
       orient="auto"
       refY="0"
       refX="0"
       id="marker5805"
       style="overflow:visible">
      <path
         id="path4237"
         d="M 0,0 5,-5 -12.5,0 5,5 0,0 Z"
         style="fill:#44aa00;fill-opacity:1;fill-rule:evenodd;stroke:#44aa00;stroke-width:1pt;stroke-opacity:1"
         transform="matrix(0.4,0,0,0.4,4,0)" />
    </marker>
    <marker
       orient="auto"
       refY="0"
       refX="0"
       id="Arrow2Mend"
       style="overflow:visible">
      <path
         id="path4258"
         style="fill:#44aa00;fill-opacity:1;fill-rule:evenodd;stroke:#44aa00;stroke-width:0.625;stroke-linejoin:round;stroke-opacity:1"
         d="M 8.7185878,4.0337352 -2.2072895,0.01601326 8.7185884,-4.0017078 c -1.7454984,2.3720609 -1.7354408,5.6174519 -6e-7,8.035443 z"
         transform="scale(-0.6,-0.6)" />
    </marker>
    <marker
       orient="auto"
       refY="0"
       refX="0"
       id="Arrow1Send"
       style="overflow:visible">
      <path
         id="path4246"
         d="M 0,0 5,-5 -12.5,0 5,5 0,0 Z"
         style="fill:#44aa00;fill-opacity:1;fill-rule:evenodd;stroke:#44aa00;stroke-width:1pt;stroke-opacity:1"
         transform="matrix(-0.2,0,0,-0.2,-1.2,0)" />
    </marker>
    <marker
       orient="auto"
       refY="0"
       refX="0"
       id="marker4487"
       style="overflow:visible">
      <path
         id="path4240"
         d="M 0,0 5,-5 -12.5,0 5,5 0,0 Z"
         style="fill:#44aa00;fill-opacity:1;fill-rule:evenodd;stroke:#44aa00;stroke-width:1pt;stroke-opacity:1"
         transform="matrix(-0.4,0,0,-0.4,-4,0)" />
    </marker>
    <marker
       style="overflow:visible"
       id="Arrow1Mend"
       refX="0"
       refY="0"
       orient="auto">
      <path
         transform="matrix(-0.4,0,0,-0.4,-4,0)"
         style="fill:#808080;fill-opacity:1;fill-rule:evenodd;stroke:#808080;stroke-width:1pt;stroke-opacity:1"
         d="M 0,0 5,-5 -12.5,0 5,5 0,0 Z"
         id="path4153" />
    </marker>
    <marker
       style="overflow:visible"
       id="Arrow1Mstart"
       refX="0"
       refY="0"
       orient="auto">
      <path
         transform="matrix(0.4,0,0,0.4,4,0)"
         style="fill:#808080;fill-opacity:1;fill-rule:evenodd;stroke:#808080;stroke-width:1pt;stroke-opacity:1"
         d="M 0,0 5,-5 -12.5,0 5,5 0,0 Z"
         id="path4150" />
    </marker>
    <marker
       orient="auto"
       refY="0"
       refX="0"
       id="Arrow2Mend-3"
       style="overflow:visible">
      <path
         id="path4258-6"
         style="fill:#ff6600;fill-opacity:1;fill-rule:evenodd;stroke:#ff6600;stroke-width:0.625;stroke-linejoin:round;stroke-opacity:1"
         d="M 8.7185878,4.0337352 -2.2072895,0.01601326 8.7185884,-4.0017078 c -1.7454984,2.3720609 -1.7354408,5.6174519 -6e-7,8.035443 z"
         transform="scale(-0.6,-0.6)" />
    </marker>
    <marker
       orient="auto"
       refY="0"
       refX="0"
       id="Arrow2Mend-5"
       style="overflow:visible">
      <path
         id="path4258-3"
         style="fill:#44aa00;fill-opacity:1;fill-rule:evenodd;stroke:#44aa00;stroke-width:0.625;stroke-linejoin:round;stroke-opacity:1"
         d="M 8.7185878,4.0337352 -2.2072895,0.01601326 8.7185884,-4.0017078 c -1.7454984,2.3720609 -1.7354408,5.6174519 -6e-7,8.035443 z"
         transform="scale(-0.6,-0.6)" />
    </marker>
    <marker
       orient="auto"
       refY="0"
       refX="0"
       id="marker5805-6"
       style="overflow:visible">
      <path
         id="path4237-1"
         d="M 0,0 5,-5 -12.5,0 5,5 0,0 Z"
         style="fill:#ff6600;fill-opacity:1;fill-rule:evenodd;stroke:#ff6600;stroke-width:1pt;stroke-opacity:1"
         transform="matrix(0.4,0,0,0.4,4,0)" />
    </marker>
    <marker
       orient="auto"
       refY="0"
       refX="0"
       id="Arrow2Mend-3-3"
       style="overflow:visible">
      <path
         id="path4258-6-6"
         style="fill:#ff6600;fill-opacity:1;fill-rule:evenodd;stroke:#ff6600;stroke-width:0.625;stroke-linejoin:round;stroke-opacity:1"
         d="M 8.7185878,4.0337352 -2.2072895,0.01601326 8.7185884,-4.0017078 c -1.7454984,2.3720609 -1.7354408,5.6174519 -6e-7,8.035443 z"
         transform="scale(-0.6,-0.6)" />
    </marker>
  </defs>
  <metadata
     id="metadata7">
    <rdf:RDF>
      <cc:Work
         rdf:about="">
        <dc:format>image/svg+xml</dc:format>
        <dc:type
           rdf:resource="http://purl.org/dc/dcmitype/StillImage" />
        <dc:title></dc:title>
      </cc:Work>
    </rdf:RDF>
  </metadata>
  <g
     transform="translate(2.96182,353.93789)"
     id="g6517">
    <g
       id="g4176"
       transform="translate(-120.07763,-671.04115)">
      <g
         word-spacing="normal"
         letter-spacing="normal"
         font-size-adjust="none"
         font-stretch="normal"
         font-weight="normal"
         font-variant="normal"
         font-style="normal"
         stroke-miterlimit="10.433"
         xml:space="preserve"
         transform="matrix(1.0629921,0,0,-1.0629921,-186.02362,789.27165)"
         id="content"
         style="font-style:normal;font-variant:normal;font-weight:normal;font-stretch:normal;letter-spacing:normal;word-spacing:normal;text-anchor:start;fill:none;fill-opacity:1;fill-rule:evenodd;stroke:#000000;stroke-linecap:butt;stroke-linejoin:miter;stroke-miterlimit:10.43299961;stroke-dasharray:none;stroke-dashoffset:0;stroke-opacity:1"><path
           id="path4179"
           d="m 469.27,435.75 0,0.21 0,0.2 0.01,0.2 0,0.18 0.01,0.17 0.01,0.17 0.02,0.15 0.02,0.15 0.03,0.14 0.03,0.12 0.03,0.12 0.04,0.12 0.05,0.1 0.06,0.1 0.06,0.09 0.08,0.08 0.08,0.07 0.09,0.07 0.09,0.06 0.11,0.06 0.12,0.05 0.07,0.02 0.06,0.02 0.07,0.02 0.08,0.02 0.07,0.02 0.08,0.02 0.08,0.01 0.09,0.01 0.09,0.02 0.09,0.01 0.09,0.01 0.1,0.01 0.1,0.01 0.11,0 0.11,0.01 0.11,0.01 0.11,0 0.12,0 0.13,0.01 0.13,0 0.13,0 0.13,0 c 0.75,0 1.55,0 1.55,0.84 0,0.89 -0.75,0.89 -1.66,0.89 l -14.04,0 c -0.89,0 -1.69,0 -1.69,-0.89 0,-0.84 0.84,-0.84 1.64,-0.84 2.84,0 2.98,-0.5 2.98,-2.84 l 0,-24.97 1.75,-0.1 0,25.16 c 0,0.75 0,1.84 -0.45,2.75 l 5.53,0 c -0.45,-0.91 -0.45,-2 -0.45,-2.75 l 0,-25.16 c 0,-0.75 0,-1.84 0.45,-2.73 l -5.53,0 c 0.45,0.89 0.45,1.98 0.45,2.73 l -1.75,0.1 c 0,-2.39 -0.14,-2.83 -3.07,-2.83 -0.66,0 -1.55,0 -1.55,-0.86 0,-0.89 0.8,-0.89 1.69,-0.89 l 14.04,0 c 0.91,0 1.66,0 1.66,0.89 0,0.86 -0.86,0.86 -1.41,0.86 -3.03,0 -3.23,0.39 -3.23,2.83 z"
           style="fill:#000000;stroke-width:0" /></g>    </g>
    <g
       transform="translate(108.04066,-403.48126)"
       id="g4205">
      <g
         style="font-style:normal;font-variant:normal;font-weight:normal;font-stretch:normal;letter-spacing:normal;word-spacing:normal;text-anchor:start;fill:none;fill-opacity:1;fill-rule:evenodd;stroke:#000000;stroke-linecap:butt;stroke-linejoin:miter;stroke-miterlimit:10.43299961;stroke-dasharray:none;stroke-dashoffset:0;stroke-opacity:1"
         id="g4207"
         transform="matrix(1.0629921,0,0,-1.0629921,-186.02362,789.27165)"
         xml:space="preserve"
         stroke-miterlimit="10.433"
         font-style="normal"
         font-variant="normal"
         font-weight="normal"
         font-stretch="normal"
         font-size-adjust="none"
         letter-spacing="normal"
         word-spacing="normal"><path
           style="fill:#000000;stroke-width:0"
           d="m 468.88,421.84 0,1.75 0,12.3 c 0,1.04 0,2.7 3.08,2.7 4.23,0 6.33,-1.75 6.33,-7.63 0,-6.43 -1.55,-7.37 -9.41,-7.37 l 0,-1.75 1.78,0 7.48,-11.56 c 0.49,-0.8 1.69,-2.74 2.24,-3.49 l 1.3,1.16 -8.97,13.89 c 0.34,0.05 0.54,0.11 0.95,0.11 0.73,0 1.84,0.09 2.58,0.19 0.75,-1.19 6.14,-10.07 10.26,-14.19 l -4.82,0 -1.3,-1.16 c 0.34,-0.59 0.5,-0.59 1.64,-0.59 l 6.87,0 c 0.91,0 1.66,0 1.66,0.89 0,0.41 -0.31,0.75 -0.75,0.86 -1.84,0.39 -4.28,3.69 -5.48,5.28 -0.35,0.48 -2.85,3.78 -6.18,9.16 4.43,0.79 8.72,2.68 8.72,8.62 l -1.75,0 c 0,-3.23 -1.5,-5.78 -6.62,-6.73 l 0,0 c 1.39,1.84 1.55,4.48 1.55,6.68 0,2.4 -0.3,5.04 -1.9,7.07 2.04,-0.44 6.97,-1.99 6.97,-7.02 l 1.75,0 c 0,6.92 -7.32,9.31 -13.2,9.31 l -15.66,0 c -0.89,0 -1.68,0 -1.68,-0.89 0,-0.84 0.95,-0.84 1.34,-0.84 2.84,0 3.09,-0.36 3.09,-2.84 l 0,-24.97 1.74,-0.1 0,25.16 c 0,0.5 0,1.84 -0.39,2.75 l 5.67,0 c -0.64,-0.8 -0.64,-1.8 -0.64,-2.55 l 0,-25.36 c 0,-0.5 0,-1.84 0.39,-2.73 l -5.42,0 c 0.39,0.89 0.39,2.28 0.39,2.73 l -1.74,0.1 c 0,-2.49 -0.25,-2.83 -3.09,-2.83 -0.39,0 -1.34,0 -1.34,-0.86 0,-0.89 0.79,-0.89 1.68,-0.89 l 13.66,0 c 0.89,0 1.64,0 1.64,0.89 0,0.86 -0.84,0.86 -1.39,0.86 -2.84,0 -3.03,0.39 -3.03,2.83 z"
           id="path4209" /></g>    </g>
    <path
       id="path4136"
       d="m 219.27174,-348.20785 0,461.62234"
       style="opacity:0.5;fill:none;fill-rule:evenodd;stroke:#808080;stroke-width:3;stroke-linecap:butt;stroke-linejoin:miter;stroke-miterlimit:4;stroke-dasharray:none;stroke-opacity:1;marker-start:url(#marker4823)" />
    <path
       id="path4138"
       d="m -2.96182,-99.71032 444.46712,0"
       style="opacity:0.5;fill:none;fill-rule:evenodd;stroke:#808080;stroke-width:3;stroke-linecap:butt;stroke-linejoin:miter;stroke-miterlimit:4;stroke-dasharray:none;stroke-opacity:1;marker-end:url(#marker5162)" />
    <path
       id="path4225"
       d="m 218.98452,-99.68149 137.16001,0"
       style="fill:none;fill-rule:evenodd;stroke:#44aa00;stroke-width:3;stroke-linecap:butt;stroke-linejoin:miter;stroke-miterlimit:4;stroke-dasharray:none;stroke-opacity:1;marker-end:url(#Arrow2Mend)" />
    <path
       id="path4225-7"
       d="m 219.30057,-99.87696 0,-137.16001"
       style="fill:none;fill-rule:evenodd;stroke:#ff6600;stroke-width:3;stroke-linecap:butt;stroke-linejoin:miter;stroke-miterlimit:4;stroke-dasharray:none;stroke-opacity:1;marker-end:url(#Arrow2Mend-3)" />
    <path
       id="path4225-5"
       d="m 220.96435,-99.51215 -137.16001,0"
       style="fill:none;fill-rule:evenodd;stroke:#44aa00;stroke-width:3;stroke-linecap:butt;stroke-linejoin:miter;stroke-miterlimit:4;stroke-dasharray:none;stroke-opacity:1;marker-end:url(#Arrow2Mend)" />
    <text
       id="text5715"
       y="-64.974098"
       x="348.56796"
       style="font-style:normal;font-variant:normal;font-weight:normal;font-stretch:normal;font-size:40px;line-height:125%;font-family:'Crete Round';-inkscape-font-specification:'Crete Round, Normal';text-align:start;letter-spacing:0px;word-spacing:0px;writing-mode:lr-tb;text-anchor:start;fill:#44aa00;fill-opacity:1;stroke:none;stroke-width:1px;stroke-linecap:butt;stroke-linejoin:miter;stroke-opacity:1"
       xml:space="preserve"><tspan
         y="-64.974098"
         x="348.56796"
         id="tspan5717">1</tspan></text>
    <text
       id="text5719"
       y="-64.974098"
       x="66.365204"
       style="font-style:normal;font-variant:normal;font-weight:normal;font-stretch:normal;font-size:40px;line-height:125%;font-family:'Crete Round';-inkscape-font-specification:'Crete Round, Normal';text-align:start;letter-spacing:0px;word-spacing:0px;writing-mode:lr-tb;text-anchor:start;fill:#44aa00;fill-opacity:1;stroke:none;stroke-width:1px;stroke-linecap:butt;stroke-linejoin:miter;stroke-opacity:1"
       xml:space="preserve"><tspan
         y="-64.974098"
         x="66.365204"
         id="tspan5721">-1</tspan></text>
    <text
       id="text5723"
       y="-224.81821"
       x="189.64244"
       style="font-style:normal;font-variant:normal;font-weight:normal;font-stretch:normal;font-size:40px;line-height:125%;font-family:'Crete Round';-inkscape-font-specification:'Crete Round, Normal';text-align:start;letter-spacing:0px;word-spacing:0px;writing-mode:lr-tb;text-anchor:start;fill:#ff6600;fill-opacity:1;stroke:none;stroke-width:1px;stroke-linecap:butt;stroke-linejoin:miter;stroke-opacity:1"
       xml:space="preserve"><tspan
         y="-224.81821"
         x="189.64244"
         id="tspan5725">i</tspan></text>
    <path
       id="path5803"
       d="m 222.079,-142.10789 c 44.93173,0 40.20208,40.99035 40.20208,40.99035"
       style="fill:none;fill-rule:evenodd;stroke:#004455;stroke-width:1px;stroke-linecap:butt;stroke-linejoin:miter;stroke-opacity:1;marker-start:url(#marker5895)" />
    <path
       id="path5803-3"
       d="m 176.8226,-101.46309 c 0,-44.93173 40.99035,-40.20208 40.99035,-40.20208"
       style="fill:none;fill-rule:evenodd;stroke:#004455;stroke-width:1px;stroke-linecap:butt;stroke-linejoin:miter;stroke-opacity:1;marker-start:url(#marker6013)" />
    <path
       id="path4225-7-7"
       d="m 219.24291,-99.503635 0,137.16001"
       style="fill:none;fill-rule:evenodd;stroke:#ff6600;stroke-width:3;stroke-linecap:butt;stroke-linejoin:miter;stroke-miterlimit:4;stroke-dasharray:none;stroke-opacity:1;marker-end:url(#Arrow2Mend-3-3)" />
    <text
       id="text5723-5"
       y="41.684044"
       x="230.65875"
       style="font-style:normal;font-variant:normal;font-weight:normal;font-stretch:normal;font-size:40px;line-height:125%;font-family:'Crete Round';-inkscape-font-specification:'Crete Round, Normal';text-align:start;letter-spacing:0px;word-spacing:0px;writing-mode:lr-tb;text-anchor:start;fill:#ff6600;fill-opacity:1;stroke:none;stroke-width:1px;stroke-linecap:butt;stroke-linejoin:miter;stroke-opacity:1"
       xml:space="preserve"><tspan
         y="41.684044"
         x="230.65875"
         id="tspan5725-3">-i</tspan></text>
    <path
       id="path5803-3-5"
       d="m 217.2605,-57.473894 c -44.93173,0 -40.20208,-40.990351 -40.20208,-40.990351"
       style="fill:none;fill-rule:evenodd;stroke:#004455;stroke-width:1px;stroke-linecap:butt;stroke-linejoin:miter;stroke-opacity:1;marker-start:url(#marker6137)" />
    <path
       id="path5803-3-5-6"
       d="m 262.7344,-98.613293 c 0,44.93173 -40.99035,40.20208 -40.99035,40.20208"
       style="fill:none;fill-rule:evenodd;stroke:#004455;stroke-width:1px;stroke-linecap:butt;stroke-linejoin:miter;stroke-opacity:1;marker-start:url(#marker6267)" />
    <text
       id="text5723-2"
       y="-142.7755"
       x="144.11633"
       style="font-style:normal;font-variant:normal;font-weight:normal;font-stretch:normal;font-size:40px;line-height:125%;font-family:'Crete Round';-inkscape-font-specification:'Crete Round, Normal';text-align:start;letter-spacing:0px;word-spacing:0px;writing-mode:lr-tb;text-anchor:start;fill:#004455;fill-opacity:1;stroke:none;stroke-width:1px;stroke-linecap:butt;stroke-linejoin:miter;stroke-opacity:1"
       xml:space="preserve"><tspan
         y="-142.7755"
         x="144.11633"
         id="tspan5725-9"
         style="font-size:25px;fill:#004455">i<tspan
   style="font-size:64.99999762%;baseline-shift:super;fill:#004455"
   id="tspan6488">2</tspan>=-1</tspan></text>
    <text
       id="text5723-2-1"
       y="-38.470989"
       x="253.11349"
       style="font-style:normal;font-variant:normal;font-weight:normal;font-stretch:normal;font-size:40px;line-height:125%;font-family:'Crete Round';-inkscape-font-specification:'Crete Round, Normal';text-align:start;letter-spacing:0px;word-spacing:0px;writing-mode:lr-tb;text-anchor:start;fill:#004455;fill-opacity:1;stroke:none;stroke-width:1px;stroke-linecap:butt;stroke-linejoin:miter;stroke-opacity:1"
       xml:space="preserve"><tspan
         y="-38.470989"
         x="253.11349"
         id="tspan5725-9-2"
         style="font-size:25px;fill:#004455">i<tspan
   style="font-size:64.99999762%;baseline-shift:super;fill:#004455"
   id="tspan6486">4</tspan>=1</tspan></text>
    <text
       id="text5723-2-0"
       y="-38.308491"
       x="146.30292"
       style="font-style:normal;font-variant:normal;font-weight:normal;font-stretch:normal;font-size:40px;line-height:125%;font-family:'Crete Round';-inkscape-font-specification:'Crete Round, Normal';text-align:start;letter-spacing:0px;word-spacing:0px;writing-mode:lr-tb;text-anchor:start;fill:#004455;fill-opacity:1;stroke:none;stroke-width:1px;stroke-linecap:butt;stroke-linejoin:miter;stroke-opacity:1"
       xml:space="preserve"><tspan
         y="-38.308491"
         x="146.30292"
         id="tspan5725-9-9"
         style="font-size:25px;fill:#004455">i<tspan
   style="font-size:64.99999762%;baseline-shift:super;fill:#004455"
   id="tspan6484">3</tspan>=-i</tspan></text>
    <text
       id="text5723-2-0-6"
       y="-143.25237"
       x="268.10666"
       style="font-style:normal;font-variant:normal;font-weight:normal;font-stretch:normal;font-size:40px;line-height:125%;font-family:'Crete Round';-inkscape-font-specification:'Crete Round, Normal';text-align:start;letter-spacing:0px;word-spacing:0px;writing-mode:lr-tb;text-anchor:start;fill:#004455;fill-opacity:1;stroke:none;stroke-width:1px;stroke-linecap:butt;stroke-linejoin:miter;stroke-opacity:1"
       xml:space="preserve"><tspan
         y="-143.25237"
         x="268.10666"
         id="tspan5725-9-9-0"
         style="font-size:25px;fill:#004455">i<tspan
   style="font-size:64.99999762%;baseline-shift:super;fill:#004455"
   id="tspan6484-6" /></tspan></text>
  </g>
</svg>
